<svg xmlns="http://www.w3.org/2000/svg" width="200" height="200" fill="none" viewBox="0 0 200 200"><circle cx="100" cy="100" r="95" fill="#0a0012" stroke="#d4af37" stroke-width="2"/><circle cx="100" cy="100" r="98" stroke="#d4af37" stroke-opacity=".3" stroke-width=".5"/><path id="topTextPath" fill="transparent" d="M 40 100 A 60 60 0 0 1 160 100"/><text fill="#d4af37" font-family="'Inter', sans-serif" font-size="18" font-weight="900" letter-spacing="2"><textPath href="#topTextPath" startOffset="50%" text-anchor="middle">SLICK TRENDS</textPath></text><path id="bottomTextPath" fill="transparent" d="M 30 100 A 70 70 0 0 0 170 100"/><text fill="#b8a9d0" font-family="'Inter', sans-serif" font-size="10" font-weight="600" letter-spacing="1.5"><textPath href="#bottomTextPath" startOffset="50%" text-anchor="middle">QUALITY ROBES AND ONESIES</textPath></text><g><path fill="none" stroke="#d4af37" stroke-linecap="round" stroke-width="3" d="M 25 5 Q 25 0 30 0 Q 35 0 35 5 Q 35 10 30 10 M 10 20 L 50 20" transform="translate(55, 75) scale(0.6)"/><path fill="#d4af37" d="M 15 20 L 5 80 L 55 80 L 45 20 Z" transform="translate(55, 75) scale(0.6)"/><path stroke="#0a0012" stroke-width="2" d="M 30 20 L 30 80" transform="translate(55, 75) scale(0.6)"/><path stroke="#0a0012" stroke-width="2" d="M 15 50 L 45 50" transform="translate(55, 75) scale(0.6)"/></g><g><path fill="none" stroke="#d4af37" stroke-linecap="round" stroke-width="4" d="M 15 20 Q 30 0 45 20" transform="translate(100, 75) scale(0.6)"/><path fill="#d4af37" d="M 15 20 L 10 60 L 25 80 L 35 80 L 50 60 L 45 20 Z" transform="translate(100, 75) scale(0.6)"/><path stroke="#0a0012" stroke-width="2" d="M 30 20 L 30 65" transform="translate(100, 75) scale(0.6)"/></g><circle cx="45" cy="100" r="2" fill="#d4af37"/><circle cx="155" cy="100" r="2" fill="#d4af37"/></svg>